<svg xmlns="http://www.w3.org/2000/svg" viewBox="0 0 456 456" width="456" height="456" role="img" aria-label="Sosisenakya logo">
<g transform="translate(228 228) rotate(15)">
<defs>
  <clipPath id="lclip"><rect x="-165.0" y="-165.0" width="330" height="330"/></clipPath>
  <linearGradient id="lbase" x1="0" y1="0" x2="1" y2="1">
    <stop offset="0" stop-color="#6a35f0"/>
    <stop offset="0.5" stop-color="#2b1a95"/>
    <stop offset="1" stop-color="#1a5bff"/>
  </linearGradient>
  <radialGradient id="lnebA" cx="0.12" cy="0.1" r="0.7">
    <stop offset="0" stop-color="#d36bff" stop-opacity="0.85"/>
    <stop offset="1" stop-color="#d36bff" stop-opacity="0"/>
  </radialGradient>
  <radialGradient id="lnebB" cx="0.95" cy="0.95" r="0.65">
    <stop offset="0" stop-color="#3fc1ff" stop-opacity="0.85"/>
    <stop offset="1" stop-color="#3fc1ff" stop-opacity="0"/>
  </radialGradient>
  <radialGradient id="lnebC" cx="0.5" cy="0.55" r="0.5">
    <stop offset="0" stop-color="#140a52" stop-opacity="0.65"/>
    <stop offset="1" stop-color="#140a52" stop-opacity="0"/>
  </radialGradient>
  <linearGradient id="ledge" x1="0" y1="0" x2="1" y2="1">
    <stop offset="0" stop-color="#e3d6ff"/>
    <stop offset="0.5" stop-color="#9a86ff"/>
    <stop offset="1" stop-color="#6fb4ff"/>
  </linearGradient>
  <linearGradient id="lwhite" x1="0" y1="0" x2="1" y2="1">
    <stop offset="0" stop-color="#ffffff"/>
    <stop offset="1" stop-color="#d9ccff"/>
  </linearGradient>
  <filter id="lblur12" x="-30%" y="-30%" width="160%" height="160%"><feGaussianBlur stdDeviation="12"/></filter>
  <filter id="lblur6" x="-30%" y="-30%" width="160%" height="160%"><feGaussianBlur stdDeviation="6"/></filter>
</defs>

<!-- outer glow -->
<rect x="-165.0" y="-165.0" width="330" height="330" fill="#8f7bff" opacity="0.55" filter="url(#lblur12)"/>

<g clip-path="url(#lclip)">
  <rect x="-165.0" y="-165.0" width="330" height="330" fill="url(#lbase)"/>
  <rect x="-165.0" y="-165.0" width="330" height="330" fill="url(#lnebC)"/>
  <rect x="-165.0" y="-165.0" width="330" height="330" fill="url(#lnebA)"/>
  <rect x="-165.0" y="-165.0" width="330" height="330" fill="url(#lnebB)"/>

  <!-- nebula clouds -->
  <g filter="url(#lblur12)">
    <ellipse cx="-90" cy="-70" rx="90" ry="48" transform="rotate(-20 -90 -70)" fill="#e070ff" opacity="0.45"/>
    <ellipse cx="70" cy="95" rx="100" ry="42" transform="rotate(-25 70 95)" fill="#35b6ff" opacity="0.45"/>
    <ellipse cx="20" cy="-10" rx="80" ry="30" transform="rotate(30 20 -10)" fill="#7b4dff" opacity="0.45"/>
    <ellipse cx="-110" cy="120" rx="70" ry="34" transform="rotate(-35 -110 120)" fill="#ff6fd8" opacity="0.3"/>
  </g>

  <!-- distant stars -->
  <circle cx="-148" cy="-161" r="0.6" fill="#ffffff" opacity="0.8"/>
<circle cx="-40" cy="125" r="0.6" fill="#bcd2ff" opacity="0.4"/>
<circle cx="155" cy="102" r="0.5" fill="#ffffff" opacity="0.9"/>
<circle cx="60" cy="-65" r="1.4" fill="#ffffff" opacity="0.8"/>
<circle cx="-45" cy="126" r="1.4" fill="#ffffff" opacity="0.7"/>
<circle cx="21" cy="101" r="1.1" fill="#ffffff" opacity="0.5"/>
<circle cx="70" cy="155" r="1.4" fill="#ffffff" opacity="0.6"/>
<circle cx="-162" cy="-7" r="0.9" fill="#ffffff" opacity="0.6"/>
<circle cx="49" cy="-150" r="0.5" fill="#ffffff" opacity="0.6"/>
<circle cx="23" cy="-59" r="0.7" fill="#ffffff" opacity="0.7"/>
<circle cx="-18" cy="13" r="1.1" fill="#e6dcff" opacity="0.9"/>
<circle cx="10" cy="13" r="0.9" fill="#ffffff" opacity="0.9"/>
<circle cx="108" cy="-140" r="0.5" fill="#ffffff" opacity="0.7"/>
<circle cx="14" cy="138" r="1.4" fill="#ffffff" opacity="0.9"/>
<circle cx="-92" cy="-92" r="0.5" fill="#e6dcff" opacity="0.6"/>
<circle cx="-146" cy="9" r="0.7" fill="#bcd2ff" opacity="0.9"/>
<circle cx="32" cy="-66" r="1.4" fill="#ffffff" opacity="0.7"/>
<circle cx="-10" cy="-12" r="0.7" fill="#ffffff" opacity="0.6"/>
<circle cx="-11" cy="38" r="0.6" fill="#ffffff" opacity="0.7"/>
<circle cx="117" cy="104" r="0.9" fill="#ffffff" opacity="0.9"/>
<circle cx="-76" cy="78" r="1.1" fill="#ffffff" opacity="0.4"/>
<circle cx="27" cy="137" r="0.9" fill="#ffffff" opacity="0.7"/>
<circle cx="147" cy="127" r="0.7" fill="#e6dcff" opacity="0.9"/>
<circle cx="104" cy="-118" r="0.5" fill="#ffffff" opacity="0.7"/>
<circle cx="-13" cy="159" r="0.7" fill="#ffffff" opacity="0.9"/>
<circle cx="-164" cy="-94" r="0.9" fill="#e6dcff" opacity="0.7"/>
<circle cx="-81" cy="-157" r="1.1" fill="#e6dcff" opacity="0.5"/>
<circle cx="-141" cy="18" r="1.4" fill="#e6dcff" opacity="0.9"/>
<circle cx="135" cy="85" r="0.7" fill="#e6dcff" opacity="0.6"/>
<circle cx="-81" cy="-44" r="1.1" fill="#bcd2ff" opacity="0.4"/>
<circle cx="-134" cy="139" r="0.5" fill="#e6dcff" opacity="0.7"/>
<circle cx="-50" cy="-118" r="0.5" fill="#bcd2ff" opacity="0.8"/>
<circle cx="-17" cy="-87" r="0.6" fill="#e6dcff" opacity="0.9"/>
<circle cx="144" cy="-53" r="1.4" fill="#e6dcff" opacity="0.6"/>
<circle cx="-30" cy="19" r="0.6" fill="#ffffff" opacity="0.4"/>
<circle cx="14" cy="118" r="0.5" fill="#bcd2ff" opacity="0.4"/>
<circle cx="-52" cy="-30" r="1.1" fill="#ffffff" opacity="0.5"/>
<circle cx="-164" cy="-135" r="1.4" fill="#ffffff" opacity="0.7"/>
<circle cx="-81" cy="101" r="1.4" fill="#ffffff" opacity="0.9"/>
<circle cx="71" cy="160" r="0.5" fill="#e6dcff" opacity="0.7"/>
<circle cx="-59" cy="-145" r="0.7" fill="#ffffff" opacity="0.5"/>
<circle cx="159" cy="-96" r="0.5" fill="#ffffff" opacity="0.7"/>
<circle cx="-129" cy="-91" r="0.9" fill="#ffffff" opacity="0.7"/>
<circle cx="-58" cy="-61" r="0.9" fill="#bcd2ff" opacity="0.9"/>
<circle cx="-10" cy="-113" r="0.9" fill="#ffffff" opacity="0.8"/>
<circle cx="12" cy="59" r="0.5" fill="#bcd2ff" opacity="0.6"/>
<circle cx="-130" cy="81" r="1.4" fill="#ffffff" opacity="0.8"/>
<circle cx="-137" cy="58" r="0.9" fill="#bcd2ff" opacity="0.6"/>
<circle cx="-40" cy="-120" r="0.9" fill="#bcd2ff" opacity="0.6"/>
<circle cx="-70" cy="-134" r="1.1" fill="#ffffff" opacity="0.9"/>
<circle cx="-57" cy="-91" r="1.4" fill="#ffffff" opacity="0.8"/>
<circle cx="-83" cy="63" r="0.9" fill="#bcd2ff" opacity="0.7"/>
<circle cx="-21" cy="50" r="0.6" fill="#e6dcff" opacity="0.5"/>
<circle cx="110" cy="-56" r="0.5" fill="#bcd2ff" opacity="0.5"/>
<circle cx="-106" cy="-12" r="1.4" fill="#bcd2ff" opacity="0.6"/>
<circle cx="-141" cy="-153" r="0.9" fill="#ffffff" opacity="0.5"/>
<circle cx="-98" cy="118" r="0.9" fill="#ffffff" opacity="0.5"/>
<circle cx="-47" cy="40" r="1.1" fill="#ffffff" opacity="0.9"/>
<circle cx="92" cy="-164" r="0.6" fill="#ffffff" opacity="0.9"/>
<circle cx="-153" cy="-66" r="1.1" fill="#ffffff" opacity="0.8"/>
<circle cx="-157" cy="152" r="1.1" fill="#bcd2ff" opacity="0.9"/>
<circle cx="-47" cy="112" r="0.5" fill="#bcd2ff" opacity="0.9"/>
<circle cx="-118" cy="-153" r="1.4" fill="#bcd2ff" opacity="0.8"/>
<circle cx="-62" cy="-77" r="1.1" fill="#e6dcff" opacity="0.6"/>
<circle cx="-53" cy="-50" r="0.5" fill="#ffffff" opacity="0.8"/>
<circle cx="133" cy="104" r="0.5" fill="#ffffff" opacity="0.7"/>
<circle cx="95" cy="-7" r="0.5" fill="#ffffff" opacity="0.8"/>
<circle cx="-76" cy="-36" r="1.1" fill="#ffffff" opacity="0.8"/>
<circle cx="-34" cy="-92" r="1.4" fill="#ffffff" opacity="0.5"/>
<circle cx="62" cy="6" r="1.4" fill="#ffffff" opacity="0.8"/>
  <path d="M-118 -105L-116.7 -97.3L-109 -96L-116.7 -94.7L-118 -87L-119.3 -94.7L-127 -96L-119.3 -97.3Z" fill="#fff" opacity="0.95"/>
  <path d="M30 105L31 111L37 112L31 113L30 119L29 113L23 112L29 111Z" fill="#fff" opacity="0.85"/>
  <path d="M128 32L128.8 37.2L134 38L128.8 38.8L128 44L127.2 38.8L122 38L127.2 37.2Z" fill="#fff" opacity="0.8"/>

</g>

<!-- edge -->
<rect x="-165.0" y="-165.0" width="330" height="330" fill="none" stroke="url(#ledge)" stroke-width="4" stroke-linejoin="miter"/>

<!-- the small square -->
<rect x="55" y="-137" width="82" height="82" fill="#c9b8ff" opacity="0.9" filter="url(#lblur6)"/>
<rect x="55" y="-137" width="82" height="82" fill="url(#lwhite)"/>
</g>
</svg>
